<svg width="410" height="482" viewBox="0 0 410 482" fill="none" xmlns="http://www.w3.org/2000/svg">
<g clip-path="url(#clip0_171_1261)">
<path d="M337.5 107H338.5V106H337.5V107ZM332.167 195C332.167 197.946 334.554 200.333 337.5 200.333C340.446 200.333 342.833 197.946 342.833 195C342.833 192.054 340.446 189.667 337.5 189.667C334.554 189.667 332.167 192.054 332.167 195ZM246 108H337.5V106H246V108ZM336.5 107V195H338.5V107H336.5Z" fill="#D8F1FF"/>
<path d="M27 206H26V205H27V206ZM32.3333 294C32.3333 296.946 29.9455 299.333 27 299.333C24.0545 299.333 21.6667 296.946 21.6667 294C21.6667 291.054 24.0545 288.667 27 288.667C29.9455 288.667 32.3333 291.054 32.3333 294ZM118.5 207H27V205H118.5V207ZM28 206V294H26V206H28Z" fill="#D8F1FF"/>
<g filter="url(#filter0_d_171_1261)">
<rect x="73" y="28" width="234" height="360" rx="17.2595" fill="url(#paint0_linear_171_1261)"/>
<rect x="73.6472" y="28.6472" width="232.706" height="358.706" rx="16.6122" stroke="url(#paint1_linear_171_1261)" stroke-opacity="0.15" stroke-width="1.29446"/>
<rect x="81.6289" y="36.6298" width="216.741" height="342.741" rx="12.9446" fill="white"/>
<rect opacity="0.9" x="90.2578" y="52.2333" width="199.481" height="44" rx="15" fill="#DEFFED"/>
<path d="M144.435 81.1657C143.068 81.1657 141.888 80.855 140.894 80.2337C139.9 79.5985 139.133 78.7494 138.595 77.6862C138.07 76.623 137.808 75.4424 137.808 74.1445C137.808 72.8466 138.07 71.6661 138.595 70.6029C139.133 69.5397 139.9 68.6974 140.894 68.0761C141.888 67.441 143.068 67.1234 144.435 67.1234C145.471 67.1234 146.403 67.3098 147.231 67.6826C148.06 68.0416 148.764 68.5387 149.344 69.1738C149.924 69.809 150.359 70.5477 150.649 71.3899H149.013C148.667 70.5477 148.122 69.878 147.376 69.3809C146.631 68.8838 145.692 68.6353 144.56 68.6353C143.455 68.6353 142.509 68.8838 141.722 69.3809C140.949 69.8642 140.362 70.52 139.962 71.3485C139.561 72.177 139.361 73.109 139.361 74.1445C139.361 75.1663 139.561 76.0983 139.962 76.9406C140.362 77.769 140.949 78.4318 141.722 78.9289C142.509 79.4121 143.455 79.6538 144.56 79.6538C145.692 79.6538 146.631 79.4052 147.376 78.9082C148.122 78.4111 148.667 77.7414 149.013 76.8991H150.649C150.359 77.7276 149.924 78.4663 149.344 79.1153C148.764 79.7504 148.06 80.2544 147.231 80.6272C146.403 80.9862 145.471 81.1657 144.435 81.1657ZM153.06 81V66.502H154.614V81H153.06ZM162.216 81.1657C161.167 81.1657 160.256 80.931 159.482 80.4615C158.709 79.9782 158.115 79.3293 157.701 78.5146C157.287 77.7 157.08 76.8025 157.08 75.8222C157.08 74.828 157.287 73.9305 157.701 73.1297C158.115 72.315 158.709 71.673 159.482 71.2035C160.256 70.7203 161.167 70.4786 162.216 70.4786C163.279 70.4786 164.191 70.7203 164.95 71.2035C165.723 71.673 166.317 72.315 166.731 73.1297C167.146 73.9305 167.353 74.828 167.353 75.8222C167.353 76.8025 167.146 77.7 166.731 78.5146C166.317 79.3293 165.723 79.9782 164.95 80.4615C164.191 80.931 163.279 81.1657 162.216 81.1657ZM162.216 79.7573C162.989 79.7573 163.638 79.5778 164.163 79.2188C164.702 78.8598 165.109 78.3835 165.385 77.7897C165.661 77.1822 165.799 76.5263 165.799 75.8222C165.799 75.1042 165.661 74.4483 165.385 73.8546C165.109 73.2609 164.702 72.7845 164.163 72.4255C163.638 72.0665 162.989 71.887 162.216 71.887C161.457 71.887 160.808 72.0665 160.269 72.4255C159.731 72.7845 159.324 73.2609 159.047 73.8546C158.771 74.4483 158.633 75.1042 158.633 75.8222C158.633 76.5263 158.771 77.1822 159.047 77.7897C159.324 78.3835 159.731 78.8598 160.269 79.2188C160.808 79.5778 161.457 79.7573 162.216 79.7573ZM174.28 81.1657C173.244 81.1657 172.347 80.931 171.587 80.4615C170.828 79.9782 170.234 79.3293 169.806 78.5146C169.392 77.7 169.185 76.8025 169.185 75.8222C169.185 74.828 169.392 73.9305 169.806 73.1297C170.234 72.315 170.828 71.673 171.587 71.2035C172.347 70.7203 173.244 70.4786 174.28 70.4786C175.509 70.4786 176.551 70.7962 177.407 71.4313C178.277 72.0665 178.864 72.888 179.168 73.896H177.49C177.255 73.3023 176.875 72.819 176.351 72.4462C175.84 72.0734 175.219 71.887 174.487 71.887C173.727 71.887 173.065 72.0665 172.498 72.4255C171.932 72.7845 171.497 73.2609 171.194 73.8546C170.89 74.4483 170.738 75.1042 170.738 75.8222C170.738 76.5263 170.89 77.1822 171.194 77.7897C171.497 78.3835 171.932 78.8598 172.498 79.2188C173.065 79.5778 173.727 79.7573 174.487 79.7573C175.219 79.7573 175.84 79.5709 176.351 79.1981C176.875 78.8253 177.255 78.342 177.49 77.7483H179.168C178.864 78.7563 178.277 79.5778 177.407 80.213C176.551 80.8481 175.509 81.1657 174.28 81.1657ZM181.507 81V66.502H183.06V75.7807L188.052 70.6443H190.226L186.063 74.7245L190.537 81H188.632L185.007 75.8014L183.06 77.7276V81H181.507ZM196.389 81.1657C195.34 81.1657 194.422 80.931 193.635 80.4615C192.848 79.9782 192.233 79.3293 191.791 78.5146C191.363 77.7 191.149 76.8025 191.149 75.8222C191.149 74.828 191.356 73.9305 191.771 73.1297C192.185 72.315 192.779 71.673 193.552 71.2035C194.325 70.7203 195.236 70.4786 196.286 70.4786C197.349 70.4786 198.26 70.7203 199.02 71.2035C199.793 71.673 200.387 72.315 200.801 73.1297C201.215 73.9305 201.422 74.828 201.422 75.8222V76.4435H192.744C192.827 77.051 193.02 77.6102 193.324 78.1211C193.642 78.6182 194.063 79.0186 194.587 79.3224C195.112 79.6123 195.72 79.7573 196.41 79.7573C197.142 79.7573 197.756 79.5985 198.253 79.281C198.75 78.9496 199.137 78.5284 199.413 78.0176H201.111C200.752 78.9427 200.179 79.7021 199.392 80.2958C198.619 80.8757 197.618 81.1657 196.389 81.1657ZM192.765 74.9937H199.807C199.669 74.11 199.296 73.3713 198.688 72.7776C198.081 72.1839 197.28 71.887 196.286 71.887C195.292 71.887 194.491 72.1839 193.883 72.7776C193.289 73.3713 192.917 74.11 192.765 74.9937ZM208.104 81.1657C207.096 81.1657 206.213 80.931 205.453 80.4615C204.708 79.9782 204.128 79.3293 203.714 78.5146C203.299 77.7 203.092 76.8025 203.092 75.8222C203.092 74.828 203.299 73.9305 203.714 73.1297C204.128 72.315 204.708 71.673 205.453 71.2035C206.213 70.7203 207.096 70.4786 208.104 70.4786C208.96 70.4786 209.692 70.6443 210.3 70.9757C210.921 71.3071 211.425 71.7558 211.812 72.3219V66.502H213.365V81H211.812V79.3431C211.425 79.8954 210.921 80.3372 210.3 80.6686C209.692 81 208.96 81.1657 208.104 81.1657ZM208.312 79.7573C209.085 79.7573 209.734 79.5778 210.258 79.2188C210.797 78.8598 211.204 78.3835 211.48 77.7897C211.757 77.1822 211.895 76.5263 211.895 75.8222C211.895 75.1042 211.757 74.4483 211.48 73.8546C211.204 73.2609 210.797 72.7845 210.258 72.4255C209.734 72.0665 209.085 71.887 208.312 71.887C207.552 71.887 206.896 72.0665 206.344 72.4255C205.792 72.7845 205.371 73.2609 205.081 73.8546C204.791 74.4483 204.646 75.1042 204.646 75.8222C204.646 76.5263 204.791 77.1822 205.081 77.7897C205.371 78.3835 205.792 78.8598 206.344 79.2188C206.896 79.5778 207.552 79.7573 208.312 79.7573ZM221.227 68.9046V66.8748H222.905V68.9046H221.227ZM221.29 81V70.6443H222.843V81H221.29ZM225.951 81V70.6443H227.505V72.2598C227.877 71.7627 228.333 71.3416 228.872 70.9964C229.41 70.6512 230.1 70.4786 230.943 70.4786C231.661 70.4786 232.33 70.6512 232.952 70.9964C233.587 71.3278 234.098 71.8318 234.484 72.5083C234.885 73.1711 235.085 73.9927 235.085 74.973V81H233.532V75.0144C233.532 74.0755 233.262 73.323 232.724 72.7569C232.185 72.177 231.488 71.887 230.632 71.887C230.052 71.887 229.527 72.0182 229.058 72.2805C228.589 72.5429 228.209 72.9157 227.919 73.3989C227.643 73.8684 227.505 74.4138 227.505 75.0351V81H225.951ZM238.469 77.2098L238.076 67.2891H240.002L239.609 77.2098H238.469ZM238.034 81V78.8874H240.043V81H238.034Z" fill="#01994E"/>
<rect opacity="0.9" x="90.2578" y="101.411" width="199.481" height="216" rx="15" fill="#EFF9FF"/>
<g clip-path="url(#clip1_171_1261)">
<path d="M302.008 292.221C301.663 291.341 299.469 290.557 298.38 292.647C298.38 292.647 297.223 286.425 295.855 285.418C294.487 284.412 293.474 285.66 293.407 286.68C293.34 287.7 294.076 292.688 294.076 292.688L291.397 296.416C291.397 296.416 291.922 292.679 291.891 292.083C291.86 291.486 289.608 283.765 289.003 283.617C288.397 283.469 286.377 283.752 286.527 285.48C286.527 285.48 284.089 285.784 284.064 286.444C284.039 287.103 284.357 296.779 284.357 296.779C284.357 296.779 282.869 297.684 281.342 297.793L280.422 296.579C280.422 296.579 280.465 293.027 280.077 292.679C279.687 292.331 278.638 290.669 278.093 290.656C277.548 290.642 276.331 296.979 276.331 296.979C276.331 296.979 274.242 303.732 274.125 307.546L265.932 326.07C265.932 326.07 264.685 320.62 262.663 313.007C258.189 315.774 239.361 327.001 227.818 327.833C233.826 357.115 244.222 392.533 259.481 393.795C284.534 395.855 290.189 320.075 290.626 313.613C293.216 311.292 298.043 306.386 298.32 305.333C298.716 303.817 302.351 293.101 302.008 292.221Z" fill="#DAA370"/>
<path d="M202.696 219.743H177.488V274.284H202.696V219.743Z" fill="#DAA370"/>
<path d="M202.7 238.252V242.453C196.696 246.877 191.22 246.361 191.22 246.361H188.972C188.972 246.361 183.496 246.877 177.492 242.453V238.264C183.496 242.688 188.972 242.16 188.972 242.16H191.22C191.22 242.16 196.696 242.688 202.7 238.252Z" fill="#C88969"/>
<path d="M262.664 313.006C263.296 312.62 263.64 312.405 263.64 312.405C263.64 312.405 250.733 271.537 248.941 269.386C247.766 267.976 234.733 261.331 225.892 256.918C219.873 253.445 211.934 249.819 202.876 248.056L190.149 262.395L181.187 251.82L177.424 247.878C177.424 247.878 167.386 251.82 165.236 253.435C165.236 253.435 161.404 254.988 156.532 257.938C150.657 261.214 141.725 266.438 139.604 269.029C136.378 272.973 113.793 315.275 113.793 315.275C113.793 315.275 113.993 315.403 114.381 315.633C118.254 317.942 140.394 331.177 146.315 334.218C146.631 334.389 146.917 334.533 147.132 334.634L152.897 327.164L155.019 353.634L136.02 391.276C136.02 391.276 216.142 401.313 243.208 391.276L224.208 347.899C224.208 347.899 225.986 339.009 228.13 327.808C239.694 326.8 258.23 315.75 262.664 313.006Z" fill="#A7C3FB"/>
<path d="M177.42 247.876C177.42 247.876 171.385 250.027 165.232 253.433C165.232 253.433 173.179 262.813 174.852 263.769C176.524 264.725 185.845 262.097 185.845 262.097L190.625 267.116L190.147 262.395L177.42 247.876Z" fill="#EAE3D0"/>
<path d="M190.146 262.395L202.874 248.055C202.874 248.055 211.417 248.712 215.481 252.297L198.991 263.529L193.015 262.812L190.626 267.115L190.146 262.395Z" fill="#EAE3D0"/>
<path d="M234.596 295.195H215.238V301.648H234.596V295.195Z" fill="white"/>
<path d="M152.617 325.667C152.804 322.594 153.144 319.546 153.509 316.499C153.857 313.451 154.317 310.421 154.777 307.391C155.271 304.366 155.767 301.342 156.373 298.334L157.287 293.824C157.644 292.329 157.952 290.827 158.35 289.338C158.273 290.878 158.103 292.401 157.98 293.933L157.46 298.505C157.111 301.553 156.651 304.583 156.189 307.612C155.694 310.636 155.198 313.66 154.59 316.668C154.003 319.682 153.388 322.686 152.617 325.667Z" fill="#5378C1"/>
<path d="M240.57 314.435C241.045 311.923 241.535 309.42 241.905 306.941C242.044 305.716 242.256 304.423 242.014 303.387C241.725 302.223 241.344 300.985 240.972 299.783C239.51 294.923 238.045 290.049 236.984 285.04C239.123 289.695 240.833 294.492 242.343 299.369C242.694 300.606 243.064 301.802 243.34 303.121C243.561 304.602 243.264 305.875 243 307.143C242.432 309.664 241.575 312.08 240.57 314.435Z" fill="#5378C1"/>
<path d="M189.905 267.353C190.038 269.126 190.106 270.899 190.2 272.672C190.304 274.444 190.322 276.217 190.386 277.99C190.51 281.535 190.573 285.079 190.598 288.624L189.905 287.931L194.445 287.908L193.729 288.624C193.747 284.362 193.764 280.1 193.896 275.838C194.011 271.575 194.15 267.313 194.445 263.052C194.741 267.315 194.88 271.577 194.995 275.838C195.126 280.1 195.144 284.362 195.162 288.624C195.164 289.019 194.847 289.34 194.453 289.341H194.445L189.905 289.317H189.896C189.516 289.316 189.209 289.005 189.211 288.624V288.623C189.236 285.077 189.299 281.534 189.423 277.988C189.489 276.215 189.507 274.443 189.61 272.67C189.705 270.899 189.772 269.126 189.905 267.353Z" fill="#5378C1"/>
<path d="M175.082 263.291C178.775 261.68 182.545 260.309 186.348 259.05C186.607 258.965 186.88 259.044 187.053 259.232L187.067 259.247C188.439 260.743 189.801 262.25 191.133 263.784L190.063 263.83C191.28 262.253 192.522 260.695 193.795 259.16L193.826 259.121C193.995 258.918 194.295 258.888 194.501 259.054C196.189 260.418 197.848 261.822 199.459 263.29C197.566 262.21 195.718 261.063 193.902 259.877L194.609 259.771C193.49 261.421 192.343 263.051 191.171 264.661C190.948 264.967 190.52 265.034 190.213 264.811C190.178 264.785 190.145 264.756 190.116 264.725L190.1 264.707C188.723 263.213 187.376 261.693 186.041 260.162L186.759 260.359C182.915 261.493 179.037 262.512 175.082 263.291Z" fill="#CCC2A6"/>
<path d="M235.505 387.532H191.259C189.331 387.532 187.873 385.787 188.214 383.891L200.131 317.685C200.397 316.211 201.678 315.141 203.176 315.141H247.422C249.35 315.141 250.808 316.885 250.467 318.781L238.55 384.987C238.284 386.459 237.001 387.532 235.505 387.532Z" fill="#8D6B6B"/>
<path d="M208.07 362.712C208.07 362.712 209.265 361.04 208.309 360.323C207.353 359.606 198.989 363.19 198.989 363.19C198.989 363.19 206.875 354.706 205.92 354.228C204.964 353.75 193.491 361.04 193.491 361.04V354.885C193.491 354.885 192.416 355.542 190.863 356.379C189.514 357.104 183.4 363.317 181.808 364.945L138.867 345.772L146.309 334.215C140.386 331.174 118.246 317.939 114.375 315.63C105.456 333.569 97.2528 352.769 99.0898 359.25C102.689 371.927 160.864 383.643 179.85 384.746L179.859 384.696L179.855 384.742C185.218 385.265 196.12 375.854 196.12 375.854C196.12 375.854 208.548 372.509 208.069 371.074C207.591 369.64 198.39 370.357 198.39 370.357C198.39 370.357 207.173 365.935 207.65 365.338C208.13 364.743 208.07 362.712 208.07 362.712Z" fill="#DAA370"/>
<path d="M220.391 205.713C217.532 205.59 215.915 206.3 214.995 207.146C215.474 198.763 214.905 191.22 214.159 188.679C212.801 184.033 201.905 178.066 190.098 178.1C178.289 178.066 167.395 184.033 166.025 188.679C165.291 191.187 164.731 198.575 165.18 206.834C164.215 206.135 162.665 205.606 160.167 205.713C153.803 205.99 157.976 227.588 167.024 220.794C167.084 221.056 167.144 221.318 167.208 221.577C168.203 225.603 169.584 229.231 171.456 231.934C174.1 235.749 176.98 238.148 179.625 239.658C184.738 242.571 188.975 242.162 188.975 242.162H191.223C191.223 242.162 196.149 242.63 201.778 238.91C204.072 237.388 206.494 235.176 208.742 231.935C210.637 229.196 212.031 225.522 213.013 221.45C213.086 221.153 213.154 220.851 213.222 220.549C222.485 228.079 226.826 205.993 220.391 205.713Z" fill="#DAA370"/>
<path d="M160.326 215.711C159.887 215.182 159.695 214.489 159.521 213.835C159.374 213.167 159.271 212.446 159.486 211.693C159.666 210.927 160.402 210.252 161.204 210.116C161.998 209.949 162.821 210.185 163.454 210.567C164.679 211.386 165.621 212.482 166.101 213.868C166.556 215.252 166.386 216.647 166.169 217.964C166.013 216.628 165.896 215.278 165.387 214.143C164.878 213.043 163.946 212.047 162.95 211.407C161.991 210.76 160.609 210.863 160.206 211.941C159.991 212.466 159.96 213.121 159.994 213.768C160.009 214.429 160.085 215.078 160.326 215.711Z" fill="#C88969"/>
<path d="M163.67 218.347C163.1 218.057 162.652 217.495 162.423 216.879C162.175 216.257 162.1 215.603 162.135 214.937C162.192 214.277 162.411 213.544 162.979 213.042C163.509 212.552 164.375 212.404 164.908 212.807C164.266 212.801 163.824 213.182 163.537 213.566C163.273 213.968 163.144 214.473 163.113 215.012C163.067 215.555 163.091 216.127 163.159 216.678C163.243 217.23 163.371 217.784 163.67 218.347Z" fill="#C88969"/>
<path d="M220.258 215.711C220.498 215.078 220.573 214.431 220.589 213.768C220.622 213.121 220.591 212.466 220.376 211.941C219.973 210.863 218.591 210.76 217.632 211.407C216.636 212.047 215.704 213.043 215.195 214.143C214.686 215.278 214.571 216.628 214.412 217.964C214.196 216.647 214.026 215.252 214.481 213.868C214.961 212.482 215.903 211.386 217.128 210.567C217.761 210.185 218.584 209.949 219.378 210.116C220.179 210.251 220.916 210.927 221.096 211.693C221.311 212.446 221.208 213.167 221.061 213.835C220.888 214.488 220.695 215.182 220.258 215.711Z" fill="#C88969"/>
<path d="M216.92 218.347C217.219 217.784 217.347 217.23 217.432 216.677C217.501 216.126 217.525 215.554 217.479 215.01C217.447 214.471 217.319 213.966 217.055 213.565C216.766 213.181 216.324 212.8 215.684 212.806C216.217 212.404 217.083 212.551 217.613 213.04C218.181 213.541 218.4 214.274 218.457 214.936C218.491 215.602 218.417 216.257 218.169 216.877C217.939 217.495 217.491 218.057 216.92 218.347Z" fill="#C88969"/>
<path d="M181.179 233.642C181.179 235.597 180.582 237.749 179.635 239.658C176.99 238.148 174.111 235.75 171.466 231.934C169.593 229.231 168.213 225.603 167.219 221.577C167.804 221.495 168.39 221.448 168.997 221.448C175.727 221.447 181.179 226.901 181.179 233.642Z" fill="#DAA370"/>
<path d="M213.026 221.447C212.043 225.519 210.65 229.195 208.755 231.932C206.507 235.174 204.085 237.386 201.791 238.907C201.053 237.186 200.598 235.337 200.598 233.641C200.598 226.899 206.052 221.447 212.781 221.447H213.026Z" fill="#DAA370"/>
<path d="M187.479 218.189C187.9 218.167 188.2 218.337 188.51 218.49C188.785 218.702 189.071 218.896 189.233 219.286C188.812 219.31 188.51 219.139 188.201 218.985C187.928 218.775 187.643 218.578 187.479 218.189Z" fill="#C88969"/>
<path d="M193.772 218.189C193.608 218.578 193.324 218.773 193.05 218.985C192.739 219.139 192.439 219.31 192.018 219.286C192.18 218.896 192.466 218.7 192.74 218.49C193.051 218.337 193.351 218.169 193.772 218.189Z" fill="#C88969"/>
<path d="M183.742 211.099C183.742 212.774 182.727 214.133 181.474 214.133C180.221 214.133 179.205 212.774 179.205 211.099C179.205 209.423 180.221 208.064 181.474 208.064C182.727 208.064 183.742 209.423 183.742 211.099Z" fill="#43363E"/>
<path d="M185.279 207.831C185.136 208.369 184.842 208.588 184.543 208.836C184.238 209.062 183.911 209.223 183.581 209.362C182.92 209.625 182.245 209.777 181.573 209.894L181.565 209.895C181.062 209.982 180.583 209.643 180.496 209.14C180.409 208.636 180.748 208.157 181.252 208.07C181.347 208.054 181.444 208.054 181.535 208.066C182.121 208.146 182.709 208.194 183.274 208.155C183.551 208.13 183.826 208.088 184.073 208.006C184.309 207.945 184.558 207.757 184.631 207.691L184.801 207.539C184.922 207.431 185.106 207.442 185.214 207.562C185.282 207.637 185.303 207.74 185.279 207.831Z" fill="#43363E"/>
<path d="M200.814 211.099C200.814 212.774 199.799 214.133 198.546 214.133C197.293 214.133 196.277 212.774 196.277 211.099C196.277 209.423 197.293 208.064 198.546 208.064C199.799 208.064 200.814 209.423 200.814 211.099Z" fill="#43363E"/>
<path d="M202.35 207.831C202.207 208.369 201.913 208.588 201.614 208.836C201.309 209.062 200.982 209.223 200.654 209.362C199.992 209.625 199.317 209.777 198.645 209.894L198.638 209.895C198.134 209.982 197.655 209.643 197.568 209.14C197.482 208.636 197.821 208.157 198.324 208.07C198.419 208.054 198.517 208.054 198.608 208.066C199.193 208.146 199.781 208.194 200.346 208.155C200.624 208.13 200.899 208.088 201.145 208.006C201.382 207.945 201.63 207.757 201.704 207.691L201.874 207.539C201.993 207.431 202.178 207.442 202.286 207.562C202.353 207.637 202.374 207.74 202.35 207.831Z" fill="#43363E"/>
<path d="M184.924 202.268C184.173 202.205 183.244 202.144 182.397 202.18C181.529 202.189 180.665 202.271 179.8 202.399C178.934 202.523 178.086 202.753 177.24 203.024C176.389 203.287 175.578 203.667 174.736 204.047L174.699 204.063C174.401 204.196 174.053 204.065 173.92 203.767C173.814 203.53 173.879 203.26 174.059 203.092C174.79 202.422 175.593 201.799 176.489 201.327C177.363 200.806 178.334 200.471 179.31 200.18C180.291 199.884 181.314 199.749 182.339 199.714C183.381 199.707 184.355 199.764 185.457 200.085C186.052 200.258 186.394 200.881 186.22 201.475C186.068 201.996 185.572 202.323 185.051 202.28L184.924 202.268Z" fill="#43363E"/>
<path d="M186.923 200.306C187.043 200.754 186.884 201.249 186.544 201.594C186.206 201.938 185.781 202.125 185.373 202.25L185.342 202.259C185.025 202.356 184.69 202.178 184.595 201.862C184.498 201.545 184.676 201.211 184.992 201.115C185.065 201.093 185.14 201.085 185.212 201.091C185.524 201.115 185.824 201.093 186.069 200.987C186.19 200.933 186.3 200.858 186.387 200.751C186.474 200.649 186.535 200.492 186.556 200.367L186.562 200.326C186.578 200.225 186.672 200.156 186.774 200.173C186.848 200.183 186.905 200.237 186.923 200.306Z" fill="#43363E"/>
<path d="M196.312 202.268C197.063 202.205 197.992 202.144 198.84 202.18C199.708 202.189 200.573 202.271 201.437 202.399C202.304 202.523 203.152 202.753 203.996 203.024C204.847 203.287 205.658 203.667 206.5 204.047L206.538 204.063C206.835 204.196 207.183 204.065 207.316 203.767C207.422 203.53 207.357 203.26 207.177 203.092C206.446 202.422 205.643 201.799 204.748 201.327C203.875 200.806 202.904 200.471 201.926 200.18C200.945 199.884 199.922 199.749 198.897 199.714C197.855 199.707 196.881 199.764 195.779 200.085C195.184 200.258 194.842 200.881 195.016 201.475C195.168 201.996 195.664 202.323 196.185 202.28L196.312 202.268Z" fill="#43363E"/>
<path d="M194.313 200.306C194.194 200.754 194.352 201.249 194.692 201.594C195.03 201.938 195.455 202.125 195.863 202.25L195.895 202.259C196.211 202.356 196.546 202.178 196.641 201.862C196.738 201.545 196.561 201.211 196.244 201.115C196.171 201.093 196.096 201.085 196.024 201.091C195.712 201.115 195.412 201.093 195.167 200.987C195.046 200.933 194.936 200.858 194.851 200.751C194.764 200.649 194.703 200.492 194.682 200.367L194.676 200.326C194.659 200.225 194.565 200.156 194.464 200.173C194.388 200.183 194.331 200.237 194.313 200.306Z" fill="#43363E"/>
<path d="M182.832 220.628C184.058 221.388 185.347 221.969 186.645 222.432C187.953 222.871 189.3 223.142 190.646 223.143C191.987 223.167 193.343 222.964 194.627 222.48C195.937 222.053 197.151 221.35 198.412 220.628C197.925 221.152 197.412 221.678 196.852 222.15C196.251 222.562 195.674 223.043 194.98 223.322C193.661 224.024 192.13 224.32 190.629 224.313C187.599 224.268 184.711 222.821 182.832 220.628Z" fill="#C88969"/>
<path d="M188.021 225.384C189.137 225.576 190.051 225.66 190.999 225.64C191.47 225.629 191.945 225.602 192.436 225.542C192.929 225.487 193.441 225.421 194.019 225.384C193.659 225.821 193.213 226.196 192.69 226.42C192.178 226.678 191.598 226.777 191.022 226.81C189.876 226.816 188.65 226.375 188.021 225.384Z" fill="#C88969"/>
<path d="M211.666 214.059L214.994 207.15C215.209 206.964 215.452 206.765 215.739 206.593C216.729 206.02 218.191 205.618 220.385 205.718C220.787 205.733 221.145 205.833 221.46 206.02C219.744 198.612 218.257 192.533 217.807 190.723C217.658 188.444 217.232 186.308 216.441 184.425C210.891 171.16 191.59 174.746 191.59 174.746C172.625 171.475 161.215 179.811 159.456 191.09C159.45 191.112 159.447 191.127 159.441 191.15C159.426 191.193 159.426 191.221 159.426 191.236C157.676 198.335 147.968 238.442 149.115 242.673C149.961 245.842 163.154 248.753 171.571 250.287C171.757 250.2 171.944 250.115 172.131 250.043C174.124 249.14 175.745 248.509 176.648 248.179L176.663 248.164C176.792 248.108 176.907 248.064 177.007 248.036C177.107 248.008 177.207 247.964 177.265 247.936C177.365 247.893 177.423 247.879 177.423 247.879L177.495 247.951V238.272C175.488 236.795 173.409 234.744 171.459 231.934C169.58 229.238 168.203 225.611 167.214 221.581C167.143 221.323 167.086 221.065 167.028 220.793C157.979 227.589 153.806 205.994 160.159 205.723C160.561 205.708 160.933 205.708 161.291 205.723C161.636 205.733 161.959 205.758 162.262 205.796C162.29 205.799 162.314 205.805 162.343 205.808C162.601 205.842 162.843 205.885 163.072 205.936C163.207 205.966 163.328 206.005 163.454 206.041C163.575 206.075 163.7 206.106 163.812 206.145C163.896 206.171 163.965 206.205 164.041 206.235C164.195 206.296 164.35 206.356 164.487 206.424L164.489 206.426C164.492 206.427 164.493 206.429 164.496 206.43C166.081 209.768 169.244 216.096 169.244 216.096L170.439 209.284C186.212 206.417 194.099 192.555 194.099 192.555C200.313 204.864 210.948 205.222 210.948 205.222L211.666 214.059Z" fill="#43363E"/>
<path d="M223.223 213.79C222.304 219.311 218.592 224.918 213.214 220.543C213.157 220.845 213.084 221.145 213.012 221.447C212.024 225.519 210.632 229.19 208.74 231.929C208.453 232.331 208.181 232.718 207.894 233.091C207.608 233.465 207.321 233.823 207.019 234.166C206.732 234.496 206.459 234.827 206.174 235.127C206.159 235.155 206.131 235.183 206.102 235.198C205.887 235.442 205.657 235.672 205.442 235.887C204.539 236.805 203.622 237.579 202.703 238.252V248.276L202.89 248.061C202.89 248.061 206.402 248.333 210.002 249.482C218.017 247.833 227.524 245.352 228.241 242.685C228.888 240.304 226.105 226.596 223.223 213.79Z" fill="#43363E"/>
<g opacity="0.5">
<path d="M217.543 188.461C208.007 190.116 198.173 187.186 188.927 184.95C182.345 183.358 175.652 181.826 168.854 181.686C166.951 181.647 165.198 181.632 163.713 181.84C161.439 184.487 159.993 187.648 159.456 191.09C159.45 191.112 159.447 191.127 159.441 191.15C159.426 191.193 159.426 191.221 159.426 191.236C159.097 192.568 158.489 195.061 157.725 198.26C164.464 197.628 171.112 197.41 177.899 198.403C181.137 198.877 184.329 199.653 187.511 200.458C191.888 196.399 194.099 192.55 194.099 192.55C197.187 198.668 201.367 201.831 204.792 203.467C206.14 203.475 207.499 203.406 208.869 203.236C210.296 203.058 215.5 201.855 220.108 200.261C219.002 195.59 218.131 192.034 217.805 190.723C217.756 189.947 217.661 189.198 217.543 188.461Z" fill="#43363E"/>
</g>
<path d="M153.132 160.526H128.211V183.925" stroke="#17A860" stroke-width="1.41855" stroke-linecap="round" stroke-linejoin="round"/>
<path d="M128.211 255.129V278.528H153.132" stroke="#17A860" stroke-width="1.41855" stroke-linecap="round" stroke-linejoin="round"/>
<path d="M224.059 160.803H248.98V184.202" stroke="#17A860" stroke-width="1.41855" stroke-linecap="round" stroke-linejoin="round"/>
<path d="M248.98 255.129V278.528H224.059" stroke="#17A860" stroke-width="1.41855" stroke-linecap="round" stroke-linejoin="round"/>
</g>
<circle cx="198.051" cy="140.579" r="19.5787" fill="#4FFFA8"/>
<path d="M204.798 135.239L195.305 144.732L190.99 140.417" stroke="#01994E" stroke-width="2.58892" stroke-linecap="round" stroke-linejoin="round"/>
<rect opacity="0.9" x="90.2578" y="322.589" width="199.481" height="18" rx="9" fill="#D2EFFF"/>
<rect opacity="0.9" x="90.2578" y="345.767" width="199.481" height="18" rx="9" fill="#D2EFFF"/>
</g>
<g filter="url(#filter1_d_171_1261)">
<rect x="267" y="212" width="116" height="199" rx="17.2595" fill="url(#paint2_linear_171_1261)"/>
<rect x="267.647" y="212.647" width="114.706" height="197.706" rx="16.6122" stroke="url(#paint3_linear_171_1261)" stroke-opacity="0.15" stroke-width="1.29446"/>
<rect x="275.629" y="220.63" width="98.7405" height="181.741" rx="12.9446" fill="white"/>
<rect opacity="0.9" x="284.258" y="229.26" width="81.481" height="18" rx="5.17784" fill="#DEFFED"/>
<path d="M301.718 241.083C301.034 241.083 300.444 240.928 299.947 240.617C299.45 240.299 299.067 239.875 298.797 239.343C298.535 238.811 298.404 238.221 298.404 237.572C298.404 236.923 298.535 236.333 298.797 235.801C299.067 235.27 299.45 234.849 299.947 234.538C300.444 234.22 301.034 234.062 301.718 234.062C302.235 234.062 302.701 234.155 303.116 234.341C303.53 234.521 303.882 234.769 304.172 235.087C304.462 235.404 304.679 235.774 304.824 236.195H304.006C303.834 235.774 303.561 235.439 303.188 235.19C302.815 234.942 302.346 234.818 301.78 234.818C301.228 234.818 300.755 234.942 300.361 235.19C299.974 235.432 299.681 235.76 299.481 236.174C299.281 236.588 299.181 237.054 299.181 237.572C299.181 238.083 299.281 238.549 299.481 238.97C299.681 239.385 299.974 239.716 300.361 239.964C300.755 240.206 301.228 240.327 301.78 240.327C302.346 240.327 302.815 240.203 303.188 239.954C303.561 239.706 303.834 239.371 304.006 238.95H304.824C304.679 239.364 304.462 239.733 304.172 240.058C303.882 240.375 303.53 240.627 303.116 240.814C302.701 240.993 302.235 241.083 301.718 241.083ZM306.03 241V233.751H306.807V241H306.03ZM310.608 241.083C310.083 241.083 309.628 240.965 309.241 240.731C308.855 240.489 308.558 240.165 308.351 239.757C308.143 239.35 308.04 238.901 308.04 238.411C308.04 237.914 308.143 237.465 308.351 237.065C308.558 236.658 308.855 236.336 309.241 236.102C309.628 235.86 310.083 235.739 310.608 235.739C311.14 235.739 311.595 235.86 311.975 236.102C312.362 236.336 312.659 236.658 312.866 237.065C313.073 237.465 313.176 237.914 313.176 238.411C313.176 238.901 313.073 239.35 312.866 239.757C312.659 240.165 312.362 240.489 311.975 240.731C311.595 240.965 311.14 241.083 310.608 241.083ZM310.608 240.379C310.995 240.379 311.319 240.289 311.582 240.109C311.851 239.93 312.054 239.692 312.193 239.395C312.331 239.091 312.4 238.763 312.4 238.411C312.4 238.052 312.331 237.724 312.193 237.427C312.054 237.13 311.851 236.892 311.582 236.713C311.319 236.533 310.995 236.443 310.608 236.443C310.228 236.443 309.904 236.533 309.635 236.713C309.365 236.892 309.162 237.13 309.024 237.427C308.886 237.724 308.817 238.052 308.817 238.411C308.817 238.763 308.886 239.091 309.024 239.395C309.162 239.692 309.365 239.93 309.635 240.109C309.904 240.289 310.228 240.379 310.608 240.379ZM316.64 241.083C316.122 241.083 315.673 240.965 315.294 240.731C314.914 240.489 314.617 240.165 314.403 239.757C314.196 239.35 314.092 238.901 314.092 238.411C314.092 237.914 314.196 237.465 314.403 237.065C314.617 236.658 314.914 236.336 315.294 236.102C315.673 235.86 316.122 235.739 316.64 235.739C317.254 235.739 317.776 235.898 318.204 236.216C318.638 236.533 318.932 236.944 319.084 237.448H318.245C318.128 237.151 317.938 236.91 317.675 236.723C317.42 236.537 317.109 236.443 316.743 236.443C316.364 236.443 316.032 236.533 315.749 236.713C315.466 236.892 315.249 237.13 315.097 237.427C314.945 237.724 314.869 238.052 314.869 238.411C314.869 238.763 314.945 239.091 315.097 239.395C315.249 239.692 315.466 239.93 315.749 240.109C316.032 240.289 316.364 240.379 316.743 240.379C317.109 240.379 317.42 240.285 317.675 240.099C317.938 239.913 318.128 239.671 318.245 239.374H319.084C318.932 239.878 318.638 240.289 318.204 240.606C317.776 240.924 317.254 241.083 316.64 241.083ZM320.253 241V233.751H321.03V238.39L323.526 235.822H324.613L322.532 237.862L324.768 241H323.816L322.004 238.401L321.03 239.364V241H320.253ZM327.695 241.083C327.17 241.083 326.711 240.965 326.317 240.731C325.924 240.489 325.617 240.165 325.396 239.757C325.182 239.35 325.075 238.901 325.075 238.411C325.075 237.914 325.178 237.465 325.385 237.065C325.592 236.658 325.889 236.336 326.276 236.102C326.662 235.86 327.118 235.739 327.643 235.739C328.174 235.739 328.63 235.86 329.01 236.102C329.396 236.336 329.693 236.658 329.9 237.065C330.107 237.465 330.211 237.914 330.211 238.411V238.722H325.872C325.913 239.026 326.01 239.305 326.162 239.561C326.321 239.809 326.531 240.009 326.794 240.161C327.056 240.306 327.36 240.379 327.705 240.379C328.071 240.379 328.378 240.299 328.627 240.14C328.875 239.975 329.068 239.764 329.207 239.509H330.056C329.876 239.971 329.59 240.351 329.196 240.648C328.81 240.938 328.309 241.083 327.695 241.083ZM325.882 237.997H329.403C329.334 237.555 329.148 237.186 328.844 236.889C328.54 236.592 328.14 236.443 327.643 236.443C327.146 236.443 326.745 236.592 326.442 236.889C326.145 237.186 325.958 237.555 325.882 237.997ZM333.552 241.083C333.048 241.083 332.606 240.965 332.227 240.731C331.854 240.489 331.564 240.165 331.357 239.757C331.15 239.35 331.046 238.901 331.046 238.411C331.046 237.914 331.15 237.465 331.357 237.065C331.564 236.658 331.854 236.336 332.227 236.102C332.606 235.86 333.048 235.739 333.552 235.739C333.98 235.739 334.346 235.822 334.65 235.988C334.961 236.154 335.213 236.378 335.406 236.661V233.751H336.183V241H335.406V240.172C335.213 240.448 334.961 240.669 334.65 240.834C334.346 241 333.98 241.083 333.552 241.083ZM333.656 240.379C334.042 240.379 334.367 240.289 334.629 240.109C334.898 239.93 335.102 239.692 335.24 239.395C335.378 239.091 335.447 238.763 335.447 238.411C335.447 238.052 335.378 237.724 335.24 237.427C335.102 237.13 334.898 236.892 334.629 236.713C334.367 236.533 334.042 236.443 333.656 236.443C333.276 236.443 332.948 236.533 332.672 236.713C332.396 236.892 332.185 237.13 332.04 237.427C331.895 237.724 331.823 238.052 331.823 238.411C331.823 238.763 331.895 239.091 332.04 239.395C332.185 239.692 332.396 239.93 332.672 240.109C332.948 240.289 333.276 240.379 333.656 240.379ZM340.114 234.952V233.937H340.953V234.952H340.114ZM340.145 241V235.822H340.921V241H340.145ZM342.476 241V235.822H343.252V236.63C343.439 236.381 343.667 236.171 343.936 235.998C344.205 235.826 344.55 235.739 344.971 235.739C345.33 235.739 345.665 235.826 345.976 235.998C346.293 236.164 346.549 236.416 346.742 236.754C346.942 237.086 347.043 237.496 347.043 237.986V241H346.266V238.007C346.266 237.538 346.131 237.161 345.862 236.878C345.593 236.588 345.244 236.443 344.816 236.443C344.526 236.443 344.264 236.509 344.029 236.64C343.794 236.771 343.604 236.958 343.459 237.199C343.321 237.434 343.252 237.707 343.252 238.018V241H342.476ZM348.735 239.105L348.538 234.145H349.501L349.304 239.105H348.735ZM348.517 241V239.944H349.522V241H348.517Z" fill="#01994E"/>
<rect opacity="0.9" x="284.258" y="252.437" width="81.481" height="112.948" rx="5.17784" fill="#EFF9FF"/>
<g clip-path="url(#clip2_171_1261)">
<path d="M383.988 362.655C383.808 362.197 382.664 361.788 382.096 362.877C382.096 362.877 381.492 359.632 380.778 359.107C380.065 358.582 379.537 359.233 379.502 359.765C379.466 360.297 379.851 362.899 379.851 362.899L378.453 364.844C378.453 364.844 378.727 362.895 378.711 362.584C378.694 362.272 377.52 358.244 377.204 358.167C376.888 358.09 375.835 358.237 375.912 359.139C375.912 359.139 374.641 359.298 374.628 359.642C374.615 359.986 374.78 365.033 374.78 365.033C374.78 365.033 374.005 365.505 373.208 365.562L372.728 364.929C372.728 364.929 372.75 363.076 372.548 362.895C372.344 362.713 371.797 361.846 371.513 361.839C371.229 361.832 370.594 365.137 370.594 365.137C370.594 365.137 369.504 368.66 369.443 370.65L365.169 380.313C365.169 380.313 364.519 377.47 363.464 373.498C361.13 374.942 351.308 380.799 345.287 381.233C348.421 396.508 353.844 414.984 361.804 415.642C374.873 416.716 377.823 377.186 378.051 373.815C379.402 372.604 381.92 370.045 382.065 369.496C382.271 368.705 384.167 363.114 383.988 362.655Z" fill="#DAA370"/>
<path d="M332.183 324.847H319.033V353.299H332.183V324.847Z" fill="#DAA370"/>
<path d="M332.185 334.503V336.694C329.053 339.002 326.196 338.733 326.196 338.733H325.024C325.024 338.733 322.167 339.002 319.035 336.694V334.509C322.167 336.816 325.024 336.541 325.024 336.541H326.196C326.196 336.541 329.053 336.816 332.185 334.503Z" fill="#C88969"/>
<path d="M363.468 373.498C363.797 373.296 363.976 373.184 363.976 373.184C363.976 373.184 357.244 351.866 356.309 350.744C355.696 350.008 348.897 346.541 344.285 344.239C341.145 342.428 337.004 340.537 332.279 339.617L325.64 347.097L320.965 341.581L319.002 339.524C319.002 339.524 313.766 341.58 312.644 342.423C312.644 342.423 310.645 343.233 308.104 344.771C305.039 346.481 300.379 349.206 299.273 350.558C297.59 352.615 285.809 374.682 285.809 374.682C285.809 374.682 285.913 374.749 286.116 374.869C288.136 376.073 299.685 382.977 302.774 384.563C302.938 384.653 303.088 384.728 303.2 384.78L306.207 380.884L307.314 394.692L297.403 414.328C297.403 414.328 339.199 419.564 353.318 414.328L343.407 391.7C343.407 391.7 344.334 387.062 345.453 381.219C351.485 380.694 361.155 374.929 363.468 373.498Z" fill="#A7C3FB"/>
<path d="M319 339.523C319 339.523 315.852 340.645 312.643 342.422C312.643 342.422 316.788 347.315 317.66 347.814C318.533 348.312 323.395 346.941 323.395 346.941L325.889 349.559L325.639 347.097L319 339.523Z" fill="#EAE3D0"/>
<path d="M325.639 347.097L332.278 339.616C332.278 339.616 336.735 339.959 338.855 341.829L330.252 347.688L327.135 347.314L325.889 349.559L325.639 347.097Z" fill="#EAE3D0"/>
<path d="M348.825 364.207H338.727V367.573H348.825V364.207Z" fill="white"/>
<path d="M306.061 380.103C306.158 378.5 306.336 376.909 306.526 375.32C306.707 373.73 306.947 372.149 307.187 370.569C307.445 368.991 307.704 367.414 308.02 365.845L308.497 363.492C308.683 362.712 308.843 361.928 309.051 361.152C309.011 361.955 308.922 362.749 308.858 363.549L308.587 365.933C308.405 367.523 308.165 369.104 307.924 370.684C307.665 372.262 307.407 373.839 307.09 375.408C306.784 376.98 306.463 378.548 306.061 380.103Z" fill="#5378C1"/>
<path d="M351.941 374.243C352.189 372.933 352.444 371.627 352.637 370.334C352.71 369.695 352.82 369.021 352.694 368.48C352.543 367.873 352.344 367.227 352.15 366.6C351.388 364.065 350.623 361.522 350.07 358.909C351.186 361.338 352.078 363.84 352.866 366.384C353.049 367.029 353.242 367.653 353.386 368.341C353.501 369.114 353.346 369.778 353.208 370.439C352.912 371.754 352.465 373.015 351.941 374.243Z" fill="#5378C1"/>
<path d="M325.513 349.683C325.582 350.608 325.617 351.533 325.666 352.457C325.721 353.382 325.73 354.307 325.764 355.232C325.828 357.081 325.861 358.93 325.874 360.779L325.513 360.418L327.881 360.405L327.507 360.779C327.516 358.556 327.526 356.332 327.594 354.109C327.654 351.886 327.727 349.662 327.881 347.44C328.035 349.663 328.108 351.886 328.168 354.109C328.236 356.332 328.246 358.556 328.255 360.779C328.256 360.985 328.091 361.152 327.885 361.153H327.881L325.513 361.141H325.508C325.309 361.14 325.15 360.978 325.15 360.779V360.778C325.164 358.929 325.196 357.08 325.261 355.231C325.295 354.306 325.305 353.381 325.358 352.457C325.408 351.533 325.443 350.608 325.513 349.683Z" fill="#5378C1"/>
<path d="M317.779 347.564C319.706 346.724 321.672 346.008 323.656 345.352C323.791 345.307 323.934 345.349 324.024 345.447L324.031 345.454C324.747 346.235 325.458 347.021 326.153 347.821L325.594 347.845C326.229 347.023 326.877 346.21 327.541 345.409L327.557 345.389C327.645 345.283 327.802 345.267 327.909 345.354C328.79 346.065 329.655 346.798 330.496 347.563C329.508 347 328.544 346.402 327.597 345.783L327.965 345.728C327.382 346.589 326.784 347.439 326.172 348.279C326.056 348.438 325.832 348.473 325.673 348.357C325.654 348.343 325.637 348.328 325.622 348.312L325.613 348.303C324.895 347.524 324.192 346.731 323.496 345.932L323.871 346.035C321.865 346.626 319.842 347.157 317.779 347.564Z" fill="#CCC2A6"/>
<path d="M341.411 317.529C339.92 317.464 339.077 317.835 338.597 318.276C338.847 313.903 338.55 309.968 338.16 308.643C337.452 306.219 331.768 303.106 325.609 303.124C319.449 303.106 313.766 306.219 313.052 308.643C312.668 309.951 312.376 313.805 312.611 318.113C312.107 317.748 311.299 317.473 309.995 317.529C306.676 317.673 308.852 328.939 313.573 325.396C313.604 325.532 313.635 325.669 313.669 325.804C314.187 327.904 314.908 329.796 315.884 331.206C317.264 333.197 318.766 334.448 320.146 335.236C322.813 336.756 325.023 336.542 325.023 336.542H326.196C326.196 336.542 328.766 336.786 331.702 334.845C332.899 334.052 334.162 332.898 335.335 331.207C336.323 329.778 337.05 327.862 337.563 325.738C337.601 325.582 337.636 325.425 337.672 325.268C342.504 329.196 344.768 317.674 341.411 317.529Z" fill="#DAA370"/>
<path d="M310.078 322.744C309.849 322.468 309.749 322.106 309.658 321.765C309.582 321.417 309.528 321.041 309.64 320.648C309.734 320.248 310.118 319.896 310.536 319.825C310.951 319.738 311.38 319.861 311.71 320.061C312.349 320.488 312.841 321.059 313.091 321.782C313.328 322.505 313.24 323.232 313.127 323.919C313.045 323.222 312.984 322.518 312.718 321.926C312.453 321.352 311.967 320.833 311.447 320.498C310.947 320.161 310.226 320.215 310.016 320.777C309.904 321.051 309.887 321.393 309.905 321.73C309.913 322.075 309.953 322.413 310.078 322.744Z" fill="#C88969"/>
<path d="M311.823 324.119C311.525 323.968 311.291 323.675 311.172 323.353C311.043 323.029 311.004 322.688 311.022 322.34C311.051 321.996 311.166 321.613 311.462 321.352C311.738 321.096 312.19 321.019 312.468 321.229C312.133 321.226 311.903 321.425 311.753 321.625C311.615 321.835 311.548 322.098 311.532 322.379C311.508 322.663 311.52 322.961 311.556 323.249C311.6 323.536 311.667 323.825 311.823 324.119Z" fill="#C88969"/>
<path d="M341.341 322.744C341.467 322.413 341.506 322.076 341.514 321.73C341.531 321.393 341.515 321.051 341.403 320.777C341.192 320.215 340.472 320.161 339.972 320.498C339.452 320.833 338.966 321.352 338.7 321.926C338.435 322.518 338.375 323.222 338.292 323.919C338.179 323.232 338.09 322.505 338.328 321.782C338.578 321.059 339.07 320.488 339.708 320.061C340.039 319.861 340.468 319.738 340.882 319.825C341.3 319.895 341.685 320.248 341.778 320.648C341.89 321.041 341.837 321.417 341.76 321.765C341.67 322.106 341.569 322.468 341.341 322.744Z" fill="#C88969"/>
<path d="M339.6 324.119C339.756 323.825 339.823 323.536 339.867 323.248C339.903 322.96 339.916 322.662 339.892 322.378C339.875 322.097 339.808 321.834 339.67 321.624C339.52 321.424 339.289 321.225 338.955 321.228C339.233 321.019 339.685 321.095 339.962 321.351C340.258 321.612 340.372 321.994 340.402 322.339C340.42 322.687 340.381 323.029 340.251 323.352C340.131 323.675 339.898 323.968 339.6 324.119Z" fill="#C88969"/>
<path d="M320.956 332.098C320.956 333.118 320.645 334.24 320.151 335.236C318.771 334.448 317.269 333.197 315.889 331.207C314.913 329.796 314.193 327.904 313.674 325.804C313.979 325.761 314.285 325.737 314.602 325.737C318.112 325.736 320.956 328.581 320.956 332.098Z" fill="#DAA370"/>
<path d="M337.569 325.736C337.057 327.86 336.33 329.778 335.341 331.206C334.169 332.897 332.905 334.051 331.708 334.844C331.324 333.946 331.086 332.982 331.086 332.097C331.086 328.58 333.931 325.736 337.441 325.736H337.569Z" fill="#DAA370"/>
<path d="M324.242 324.037C324.462 324.025 324.618 324.114 324.781 324.193C324.924 324.304 325.073 324.405 325.158 324.609C324.938 324.621 324.781 324.532 324.619 324.452C324.477 324.342 324.328 324.239 324.242 324.037Z" fill="#C88969"/>
<path d="M327.525 324.037C327.439 324.239 327.291 324.341 327.148 324.452C326.986 324.532 326.829 324.621 326.609 324.609C326.694 324.405 326.843 324.303 326.986 324.193C327.148 324.114 327.305 324.026 327.525 324.037Z" fill="#C88969"/>
<path d="M322.293 320.338C322.293 321.212 321.763 321.921 321.109 321.921C320.456 321.921 319.926 321.212 319.926 320.338C319.926 319.464 320.456 318.755 321.109 318.755C321.763 318.755 322.293 319.464 322.293 320.338Z" fill="#43363E"/>
<path d="M323.094 318.633C323.019 318.914 322.866 319.028 322.71 319.158C322.551 319.275 322.381 319.36 322.208 319.432C321.863 319.569 321.511 319.649 321.161 319.709L321.157 319.71C320.894 319.755 320.644 319.578 320.599 319.316C320.554 319.053 320.731 318.803 320.993 318.758C321.043 318.75 321.094 318.75 321.141 318.756C321.446 318.798 321.753 318.823 322.048 318.802C322.193 318.789 322.336 318.767 322.465 318.725C322.588 318.693 322.718 318.594 322.756 318.56L322.845 318.481C322.908 318.425 323.004 318.43 323.06 318.493C323.096 318.532 323.107 318.586 323.094 318.633Z" fill="#43363E"/>
<path d="M331.199 320.338C331.199 321.212 330.669 321.921 330.015 321.921C329.362 321.921 328.832 321.212 328.832 320.338C328.832 319.464 329.362 318.755 330.015 318.755C330.669 318.755 331.199 319.464 331.199 320.338Z" fill="#43363E"/>
<path d="M332 318.633C331.925 318.914 331.771 319.028 331.616 319.158C331.457 319.275 331.286 319.36 331.115 319.432C330.77 319.569 330.417 319.649 330.067 319.709L330.063 319.71C329.8 319.755 329.55 319.578 329.505 319.316C329.46 319.053 329.637 318.803 329.899 318.758C329.949 318.75 330 318.75 330.047 318.756C330.353 318.798 330.66 318.823 330.954 318.802C331.099 318.789 331.242 318.767 331.371 318.725C331.495 318.693 331.624 318.594 331.662 318.56L331.751 318.481C331.813 318.425 331.91 318.43 331.966 318.493C332.001 318.532 332.012 318.586 332 318.633Z" fill="#43363E"/>
<path d="M322.907 315.731C322.516 315.699 322.031 315.667 321.589 315.685C321.137 315.69 320.686 315.733 320.235 315.8C319.783 315.865 319.34 315.984 318.899 316.126C318.455 316.263 318.032 316.461 317.593 316.659L317.573 316.668C317.418 316.737 317.237 316.669 317.167 316.513C317.112 316.39 317.146 316.249 317.24 316.161C317.621 315.812 318.04 315.487 318.507 315.24C318.963 314.969 319.469 314.794 319.979 314.642C320.491 314.488 321.024 314.417 321.559 314.399C322.103 314.395 322.611 314.425 323.186 314.592C323.496 314.683 323.674 315.008 323.584 315.318C323.504 315.59 323.246 315.76 322.974 315.738L322.907 315.731Z" fill="#43363E"/>
<path d="M323.951 314.708C324.013 314.941 323.931 315.2 323.753 315.38C323.577 315.559 323.355 315.656 323.142 315.722L323.126 315.727C322.961 315.777 322.786 315.684 322.736 315.519C322.686 315.354 322.779 315.18 322.944 315.13C322.982 315.118 323.021 315.114 323.058 315.117C323.221 315.13 323.378 315.118 323.505 315.063C323.569 315.035 323.626 314.996 323.671 314.94C323.717 314.887 323.748 314.805 323.759 314.74L323.763 314.718C323.771 314.665 323.82 314.63 323.873 314.638C323.912 314.644 323.942 314.672 323.951 314.708Z" fill="#43363E"/>
<path d="M328.848 315.731C329.24 315.699 329.725 315.667 330.167 315.685C330.62 315.69 331.071 315.733 331.522 315.8C331.974 315.865 332.416 315.984 332.856 316.126C333.3 316.263 333.723 316.461 334.163 316.659L334.182 316.668C334.337 316.737 334.519 316.669 334.588 316.513C334.644 316.39 334.61 316.249 334.516 316.161C334.135 315.812 333.716 315.487 333.249 315.24C332.793 314.969 332.287 314.794 331.777 314.642C331.265 314.488 330.731 314.417 330.197 314.399C329.653 314.395 329.145 314.425 328.57 314.592C328.26 314.683 328.082 315.008 328.172 315.318C328.251 315.59 328.51 315.76 328.782 315.738L328.848 315.731Z" fill="#43363E"/>
<path d="M327.806 314.708C327.743 314.941 327.826 315.2 328.004 315.38C328.18 315.559 328.402 315.656 328.614 315.722L328.631 315.727C328.796 315.777 328.97 315.684 329.02 315.519C329.071 315.354 328.978 315.18 328.813 315.13C328.775 315.118 328.736 315.114 328.699 315.117C328.536 315.13 328.379 315.118 328.251 315.063C328.188 315.035 328.131 314.996 328.086 314.94C328.041 314.887 328.009 314.805 327.998 314.74L327.995 314.718C327.987 314.665 327.937 314.63 327.884 314.638C327.845 314.644 327.815 314.672 327.806 314.708Z" fill="#43363E"/>
<path d="M321.818 325.309C322.458 325.705 323.13 326.009 323.807 326.25C324.49 326.479 325.192 326.62 325.894 326.621C326.594 326.633 327.301 326.527 327.971 326.275C328.655 326.052 329.288 325.685 329.945 325.309C329.691 325.582 329.424 325.857 329.132 326.103C328.818 326.318 328.517 326.569 328.155 326.714C327.467 327.081 326.669 327.235 325.886 327.231C324.305 327.208 322.798 326.453 321.818 325.309Z" fill="#C88969"/>
<path d="M324.525 327.79C325.107 327.89 325.584 327.934 326.079 327.924C326.324 327.917 326.572 327.903 326.828 327.872C327.085 327.843 327.353 327.809 327.654 327.79C327.466 328.018 327.233 328.213 326.961 328.33C326.693 328.465 326.391 328.516 326.091 328.534C325.493 328.537 324.853 328.307 324.525 327.79Z" fill="#C88969"/>
<path d="M336.858 321.882L338.594 318.278C338.706 318.181 338.833 318.077 338.983 317.988C339.499 317.688 340.262 317.479 341.407 317.531C341.616 317.539 341.803 317.591 341.967 317.688C341.072 313.824 340.296 310.653 340.062 309.709C339.984 308.52 339.762 307.406 339.349 306.423C336.454 299.504 326.386 301.374 326.386 301.374C316.492 299.668 310.541 304.017 309.623 309.9C309.62 309.912 309.618 309.92 309.615 309.931C309.607 309.954 309.607 309.969 309.607 309.977C308.694 313.679 303.63 334.602 304.229 336.809C304.67 338.462 311.552 339.98 315.942 340.78C316.04 340.735 316.137 340.691 316.235 340.653C317.275 340.182 318.12 339.853 318.591 339.681L318.599 339.673C318.666 339.644 318.726 339.621 318.778 339.606C318.83 339.591 318.883 339.569 318.913 339.554C318.965 339.532 318.996 339.525 318.996 339.525L319.033 339.562V334.513C317.986 333.742 316.902 332.673 315.884 331.207C314.904 329.8 314.186 327.908 313.67 325.806C313.633 325.671 313.603 325.537 313.573 325.395C308.852 328.94 306.676 317.675 309.99 317.533C310.199 317.526 310.393 317.526 310.58 317.533C310.76 317.539 310.929 317.552 311.087 317.572C311.101 317.573 311.114 317.576 311.129 317.578C311.264 317.596 311.39 317.618 311.509 317.645C311.58 317.66 311.643 317.681 311.708 317.699C311.771 317.717 311.837 317.734 311.895 317.754C311.939 317.767 311.975 317.785 312.015 317.801C312.095 317.833 312.176 317.864 312.247 317.9L312.248 317.9C312.25 317.901 312.251 317.902 312.252 317.903C313.079 319.644 314.729 322.945 314.729 322.945L315.352 319.391C323.58 317.896 327.694 310.665 327.694 310.665C330.936 317.085 336.484 317.272 336.484 317.272L336.858 321.882Z" fill="#43363E"/>
<path d="M342.888 321.742C342.409 324.622 340.472 327.547 337.667 325.265C337.637 325.422 337.599 325.579 337.561 325.736C337.046 327.86 336.32 329.775 335.333 331.204C335.183 331.414 335.041 331.616 334.892 331.81C334.742 332.005 334.592 332.192 334.435 332.371C334.285 332.543 334.143 332.716 333.994 332.872C333.986 332.887 333.972 332.902 333.957 332.91C333.845 333.037 333.725 333.156 333.612 333.269C333.141 333.748 332.663 334.151 332.184 334.503V339.732L332.281 339.62C332.281 339.62 334.113 339.761 335.991 340.36C340.172 339.5 345.131 338.206 345.505 336.815C345.843 335.573 344.391 328.422 342.888 321.742Z" fill="#43363E"/>
<g opacity="0.5">
<path d="M339.925 308.529C334.951 309.392 329.821 307.864 324.997 306.698C321.564 305.867 318.072 305.068 314.526 304.995C313.534 304.974 312.619 304.967 311.845 305.075C310.658 306.456 309.904 308.105 309.624 309.9C309.621 309.912 309.619 309.92 309.616 309.931C309.608 309.954 309.608 309.969 309.608 309.977C309.437 310.672 309.12 311.972 308.721 313.64C312.237 313.311 315.704 313.197 319.245 313.715C320.934 313.962 322.599 314.367 324.259 314.787C326.542 312.67 327.695 310.662 327.695 310.662C329.306 313.853 331.487 315.503 333.273 316.357C333.977 316.361 334.686 316.325 335.4 316.236C336.145 316.144 338.859 315.516 341.263 314.684C340.686 312.248 340.232 310.393 340.062 309.709C340.036 309.304 339.986 308.913 339.925 308.529Z" fill="#43363E"/>
</g>
<path d="M306.326 296.003H293.326V308.209" stroke="#17A860" stroke-width="0.739986" stroke-linecap="round" stroke-linejoin="round"/>
<path d="M293.326 345.352V357.558H306.326" stroke="#17A860" stroke-width="0.739986" stroke-linecap="round" stroke-linejoin="round"/>
<path d="M343.326 296.147H356.326V308.353" stroke="#17A860" stroke-width="0.739986" stroke-linecap="round" stroke-linejoin="round"/>
<path d="M356.326 345.352V357.558H343.326" stroke="#17A860" stroke-width="0.739986" stroke-linecap="round" stroke-linejoin="round"/>
</g>
<circle cx="325.052" cy="273.052" r="13.0525" fill="#4FFFA8"/>
<path d="M329.549 269.493L323.22 275.821L320.344 272.945" stroke="#01994E" stroke-width="1.72595" stroke-linecap="round" stroke-linejoin="round"/>
<rect opacity="0.9" x="284.258" y="370.563" width="81.481" height="9" rx="4.5" fill="#D2EFFF"/>
<rect opacity="0.9" x="284.258" y="384.74" width="81.481" height="9" rx="4.5" fill="#D2EFFF"/>
</g>
<path d="M130.735 339.486L139.375 316.65C140.293 314.224 139 311.523 136.535 310.717L130.259 308.666C128.009 307.93 125.571 309.043 124.653 311.226L115.307 333.448C114.31 335.818 115.475 338.543 117.878 339.461L124.858 342.126C127.21 343.024 129.844 341.841 130.735 339.486Z" fill="#191847"/>
<path d="M54.9441 374.966C54.9441 374.966 43.7275 384.981 40.9229 397C38.1183 409.018 16.8867 570.863 16.8867 570.863H33.7125L76.5771 415.828L71.7699 571.264H91.3993C91.3993 571.264 107.424 405.012 107.023 402.207C106.622 399.403 101.617 382.871 101.617 382.871L54.9441 374.966Z" fill="#EAE3D0"/>
<path d="M30.5059 569.795L35.8154 549.931L41.2001 530.088L52.0913 490.436L63.1393 450.827C66.8651 437.636 70.5876 424.445 74.3927 411.275C74.3993 411.25 74.426 411.235 74.4519 411.241C74.4661 411.245 74.4778 411.256 74.4836 411.269L76.5756 416.096L74.3943 411.309L74.4853 411.302C70.9681 424.551 67.3675 437.777 63.7719 451.003L52.8531 490.648L41.7775 530.249L36.1784 550.033L30.5059 569.795Z" fill="#CCC2A6"/>
<path d="M137.074 331.039C136.881 330.548 135.655 330.11 135.047 331.277C135.047 331.277 134.4 327.801 133.636 327.238C132.872 326.676 132.306 327.374 132.268 327.944C132.231 328.513 132.642 331.3 132.642 331.3L131.145 333.383C131.145 333.383 131.439 331.295 131.421 330.963C131.404 330.629 130.145 326.315 129.807 326.232C129.469 326.149 128.341 326.307 128.424 327.273C128.424 327.273 127.062 327.443 127.048 327.812C127.034 328.18 127.212 333.586 127.212 333.586C127.212 333.586 126.38 334.092 125.527 334.153L125.013 333.474C125.013 333.474 125.037 331.49 124.82 331.295C124.602 331.101 124.016 330.172 123.712 330.165C123.407 330.157 122.727 333.698 122.727 333.698C122.727 333.698 121.56 337.471 121.495 339.602L116.917 349.952C116.917 349.952 116.22 346.907 115.09 342.653C112.59 344.199 102.071 350.473 95.6211 350.937C98.9781 367.298 104.787 387.088 113.312 387.793C127.311 388.944 130.47 346.603 130.715 342.992C132.161 341.695 134.858 338.954 135.014 338.366C135.235 337.519 137.266 331.531 137.074 331.039Z" fill="#DAA370"/>
<path d="M116.767 350.662C115.857 353.698 114.722 356.641 113.532 359.561C112.319 362.473 111.051 365.361 109.557 368.155C110.465 365.119 111.6 362.176 112.792 359.256C114.006 356.346 115.274 353.458 116.767 350.662Z" fill="#C88969"/>
<path d="M107.688 365.886C108.098 365.316 108.622 364.964 109.172 364.662C109.734 364.384 110.323 364.158 111.026 364.149C110.616 364.72 110.092 365.073 109.542 365.372C108.979 365.65 108.39 365.876 107.688 365.886Z" fill="#C88969"/>
<path d="M125.848 334.638C126.264 334.997 126.446 335.437 126.572 335.886C126.674 336.34 126.717 336.811 126.516 337.309C126.091 336.917 125.912 336.498 125.791 336.062C125.694 335.62 125.655 335.17 125.848 334.638Z" fill="#C88969"/>
<path d="M128.119 338.244C129.478 337.121 130.956 336.213 132.464 335.358L132.306 335.519C133.119 334.012 133.983 332.532 135.063 331.167C134.541 332.828 133.803 334.375 133.014 335.894C132.977 335.965 132.921 336.021 132.855 336.057C131.335 336.891 129.787 337.676 128.119 338.244Z" fill="#C88969"/>
<path d="M128.518 327.695C128.921 328.526 129.145 329.373 129.291 330.239C129.417 331.107 129.489 331.984 129.319 332.903C128.862 332.088 128.65 331.232 128.5 330.365C128.438 329.929 128.387 329.492 128.384 329.047C128.379 328.604 128.389 328.151 128.518 327.695Z" fill="#C88969"/>
<path d="M81.5826 290.543H67.498V321.017H81.5826V290.543Z" fill="#DAA370"/>
<path d="M81.5846 300.885V303.232C78.2301 305.704 75.1702 305.416 75.1702 305.416H73.9144C73.9144 305.416 70.8545 305.704 67.5 303.232V300.891C70.8545 303.363 73.9144 303.068 73.9144 303.068H75.1702C75.1702 303.068 78.2301 303.363 81.5846 300.885Z" fill="#C88969"/>
<path d="M115.089 342.653C115.442 342.437 115.634 342.317 115.634 342.317C115.634 342.317 108.423 319.482 107.421 318.28C106.765 317.493 99.4824 313.779 94.5425 311.314C91.1797 309.374 86.7438 307.348 81.6829 306.362L74.5717 314.374L69.5642 308.466L67.4614 306.263C67.4614 306.263 61.8531 308.466 60.6515 309.368C60.6515 309.368 58.5103 310.236 55.7884 311.884C52.5056 313.714 47.5148 316.633 46.3299 318.081C44.5275 320.285 31.9082 343.92 31.9082 343.92C31.9082 343.92 32.02 343.992 32.237 344.121C34.4007 345.411 46.7713 352.806 50.0799 354.505C50.256 354.601 50.4162 354.681 50.5364 354.737L53.7573 350.564L54.9431 365.353L44.3272 386.385C44.3272 386.385 89.0952 391.994 104.218 386.385L93.6021 362.149C93.6021 362.149 94.5951 357.181 95.7933 350.923C102.254 350.36 112.612 344.186 115.089 342.653Z" fill="#A7C3FB"/>
<path d="M67.4603 306.262C67.4603 306.262 64.0883 307.463 60.6504 309.367C60.6504 309.367 65.0905 314.608 66.025 315.142C66.9596 315.676 72.1674 314.207 72.1674 314.207L74.8385 317.012L74.5714 314.374L67.4603 306.262Z" fill="#EAE3D0"/>
<path d="M74.5703 314.374L81.6815 306.362C81.6815 306.362 86.4553 306.729 88.7258 308.732L79.5119 315.008L76.1733 314.607L74.8382 317.011L74.5703 314.374Z" fill="#EAE3D0"/>
<path d="M99.4079 332.701H88.5918V336.307H99.4079V332.701Z" fill="white"/>
<path d="M53.6055 349.727C53.7098 348.01 53.9 346.307 54.1036 344.605C54.2981 342.902 54.5551 341.209 54.8121 339.515C55.0883 337.826 55.3653 336.136 55.7041 334.455L56.2148 331.935C56.4142 331.1 56.5861 330.261 56.8089 329.429C56.7655 330.289 56.6704 331.14 56.602 331.996L56.3116 334.551C56.1163 336.254 55.8593 337.947 55.6015 339.639C55.3244 341.329 55.0474 343.018 54.7078 344.699C54.3798 346.383 54.036 348.062 53.6055 349.727Z" fill="#5378C1"/>
<path d="M102.748 343.451C103.013 342.048 103.287 340.649 103.494 339.264C103.571 338.58 103.69 337.857 103.555 337.278C103.393 336.628 103.18 335.936 102.972 335.265C102.155 332.549 101.337 329.826 100.744 327.027C101.939 329.628 102.895 332.308 103.738 335.034C103.934 335.725 104.141 336.393 104.296 337.13C104.419 337.957 104.253 338.668 104.105 339.377C103.788 340.785 103.309 342.136 102.748 343.451Z" fill="#5378C1"/>
<path d="M74.4388 317.145C74.5131 318.135 74.5506 319.126 74.6032 320.116C74.6616 321.107 74.6716 322.097 74.7075 323.088C74.7768 325.069 74.8118 327.049 74.826 329.03L74.4388 328.643L76.9755 328.629L76.575 329.03C76.585 326.648 76.595 324.267 76.6684 321.885C76.7327 319.504 76.8103 317.122 76.9755 314.742C77.1407 317.123 77.2183 319.505 77.2826 321.885C77.356 324.267 77.366 326.648 77.376 329.03C77.3769 329.25 77.2 329.429 76.9797 329.43H76.9755L74.4388 329.417H74.4338C74.221 329.416 74.0499 329.243 74.0508 329.03V329.029C74.065 327.048 74.1 325.068 74.1693 323.087C74.206 322.096 74.216 321.106 74.2736 320.115C74.327 319.126 74.3645 318.135 74.4388 317.145Z" fill="#5378C1"/>
<path d="M66.1582 314.875C68.2218 313.975 70.3279 313.209 72.4532 312.505C72.5976 312.458 72.7503 312.502 72.8471 312.607L72.8546 312.615C73.6215 313.451 74.3825 314.293 75.1268 315.15L74.5285 315.176C75.2086 314.295 75.9029 313.425 76.6138 312.567L76.6313 312.545C76.7256 312.432 76.8933 312.415 77.0085 312.508C77.9514 313.27 78.8785 314.054 79.7789 314.874C78.7208 314.271 77.6886 313.63 76.6739 312.968L77.0686 312.908C76.4436 313.83 75.8027 314.741 75.1477 315.64C75.0233 315.811 74.7839 315.849 74.6128 315.725C74.5928 315.709 74.5744 315.694 74.5586 315.676L74.5494 315.666C73.78 314.832 73.0274 313.982 72.2814 313.127L72.6827 313.237C70.5349 313.87 68.3678 314.439 66.1582 314.875Z" fill="#CCC2A6"/>
<path d="M99.9141 384.293H75.192C74.1147 384.293 73.3003 383.319 73.4906 382.259L80.1495 345.267C80.298 344.444 81.0139 343.845 81.8509 343.845H106.573C107.65 343.845 108.465 344.82 108.274 345.88L101.616 382.872C101.467 383.694 100.75 384.293 99.9141 384.293Z" fill="#8D6B6B"/>
<path d="M84.5859 370.426C84.5859 370.426 85.2534 369.491 84.7194 369.091C84.1854 368.69 79.5116 370.693 79.5116 370.693C79.5116 370.693 83.9183 365.952 83.3843 365.685C82.8503 365.418 76.44 369.491 76.44 369.491V366.052C76.44 366.052 75.8392 366.42 74.9714 366.887C74.2179 367.292 70.8017 370.764 69.9122 371.673L45.9194 360.961L50.0774 354.503C46.768 352.804 34.3974 345.409 32.2345 344.119C27.2512 354.142 22.6676 364.87 23.6939 368.491C25.7049 375.574 58.2099 382.12 68.8182 382.737L68.8232 382.709L68.8207 382.735C71.8172 383.027 77.9087 377.769 77.9087 377.769C77.9087 377.769 84.8529 375.9 84.5851 375.098C84.318 374.297 79.177 374.697 79.177 374.697C79.177 374.697 84.0844 372.226 84.3514 371.893C84.6193 371.561 84.5859 370.426 84.5859 370.426Z" fill="#DAA370"/>
<path d="M38.25 358.14C39.6243 358.376 40.9469 358.756 42.2528 359.182C43.5554 359.619 44.8388 360.105 46.0963 360.665L45.785 361.155C45.2502 360.533 44.7286 359.897 44.2597 359.209C44.9473 359.679 45.5839 360.2 46.2056 360.735C46.3274 360.84 46.3416 361.023 46.2365 361.146C46.1597 361.234 46.042 361.266 45.9361 361.237L45.8944 361.225C44.5701 360.851 43.2725 360.402 41.9925 359.903C40.7166 359.394 39.4574 358.839 38.25 358.14Z" fill="#C88969"/>
<path d="M84.5863 370.559C83.6901 371.131 82.7296 371.466 81.7541 371.747C80.772 372.003 79.774 372.202 78.7109 372.162C79.6063 371.588 80.5676 371.253 81.543 370.974C82.526 370.72 83.524 370.522 84.5863 370.559Z" fill="#C88969"/>
<path d="M91.4638 282.704C89.8666 282.635 88.9629 283.032 88.4489 283.504C88.7168 278.82 88.3988 274.606 87.9816 273.186C87.2231 270.59 81.135 267.256 74.5379 267.275C67.9399 267.256 61.8526 270.59 61.0875 273.186C60.6769 274.587 60.364 278.715 60.6152 283.33C60.0761 282.939 59.21 282.644 57.8139 282.704C54.2584 282.858 56.5898 294.926 61.6457 291.13C61.6791 291.276 61.7125 291.423 61.7483 291.567C62.3041 293.817 63.0759 295.844 64.1215 297.354C65.5993 299.486 67.2081 300.826 68.6859 301.67C71.5431 303.298 73.9104 303.069 73.9104 303.069H75.1662C75.1662 303.069 77.9191 303.331 81.0641 301.252C82.3458 300.402 83.6993 299.166 84.9551 297.355C86.014 295.825 86.7925 293.772 87.3416 291.496C87.3825 291.33 87.42 291.162 87.4584 290.993C92.6337 295.201 95.0594 282.86 91.4638 282.704Z" fill="#DAA370"/>
<path d="M57.8971 288.29C57.6518 287.994 57.5449 287.607 57.4473 287.242C57.3655 286.869 57.308 286.466 57.4281 286.045C57.5283 285.617 57.9396 285.24 58.3877 285.164C58.8317 285.07 59.2914 285.202 59.6452 285.416C60.3295 285.873 60.856 286.486 61.1239 287.26C61.3784 288.033 61.2833 288.813 61.1623 289.549C61.0746 288.802 61.0096 288.048 60.725 287.413C60.4405 286.799 59.9198 286.243 59.3632 285.885C58.8275 285.523 58.0556 285.581 57.8303 286.183C57.7102 286.476 57.6926 286.843 57.7118 287.204C57.7202 287.574 57.7627 287.936 57.8971 288.29Z" fill="#C88969"/>
<path d="M59.7646 289.762C59.4458 289.601 59.1955 289.287 59.0678 288.942C58.9293 288.595 58.8876 288.23 58.9067 287.857C58.9385 287.489 59.0611 287.079 59.3782 286.798C59.6744 286.525 60.1584 286.442 60.4563 286.667C60.0975 286.664 59.8505 286.877 59.6903 287.091C59.5426 287.316 59.4708 287.598 59.4533 287.899C59.4274 288.203 59.4408 288.522 59.4792 288.83C59.5259 289.138 59.5977 289.448 59.7646 289.762Z" fill="#C88969"/>
<path d="M91.3845 288.29C91.5189 287.936 91.5606 287.575 91.5698 287.204C91.5881 286.843 91.5706 286.476 91.4504 286.183C91.2251 285.581 90.4533 285.523 89.9176 285.885C89.361 286.243 88.8403 286.799 88.5557 287.413C88.2712 288.048 88.207 288.802 88.1185 289.549C87.9975 288.813 87.9024 288.033 88.1569 287.26C88.4247 286.486 88.9513 285.873 89.6355 285.416C89.9893 285.202 90.4491 285.07 90.893 285.164C91.3403 285.239 91.7525 285.617 91.8526 286.045C91.9728 286.466 91.9152 286.869 91.8335 287.242C91.7367 287.606 91.629 287.994 91.3845 288.29Z" fill="#C88969"/>
<path d="M89.5171 289.762C89.684 289.448 89.7557 289.138 89.8033 288.829C89.8417 288.522 89.8551 288.202 89.8292 287.898C89.8117 287.597 89.7399 287.315 89.5922 287.091C89.4311 286.876 89.1841 286.663 88.8262 286.667C89.1241 286.442 89.6081 286.524 89.9043 286.798C90.2214 287.077 90.344 287.487 90.3757 287.857C90.3949 288.229 90.3532 288.595 90.2147 288.941C90.0862 289.287 89.8359 289.601 89.5171 289.762Z" fill="#C88969"/>
<path d="M69.5504 298.309C69.5504 299.401 69.2166 300.604 68.6876 301.67C67.2098 300.826 65.601 299.486 64.1232 297.354C63.0768 295.844 62.3057 293.817 61.75 291.567C62.0771 291.522 62.4042 291.496 62.7438 291.496C66.5038 291.495 69.5504 294.542 69.5504 298.309Z" fill="#DAA370"/>
<path d="M87.3446 291.495C86.7956 293.77 86.017 295.824 84.9581 297.353C83.7023 299.165 82.3488 300.401 81.0671 301.25C80.6549 300.289 80.4004 299.256 80.4004 298.308C80.4004 294.541 83.4478 291.495 87.2078 291.495H87.3446Z" fill="#DAA370"/>
<path d="M73.0703 289.675C73.3056 289.662 73.4734 289.757 73.6469 289.843C73.8005 289.961 73.9598 290.07 74.0508 290.287C73.8155 290.301 73.6469 290.206 73.4742 290.12C73.3215 290.002 73.1621 289.892 73.0703 289.675Z" fill="#C88969"/>
<path d="M76.5859 289.675C76.4942 289.892 76.3356 290.001 76.1821 290.12C76.0085 290.206 75.8408 290.301 75.6055 290.287C75.6964 290.07 75.8558 289.96 76.0093 289.843C76.1829 289.757 76.3506 289.663 76.5859 289.675Z" fill="#C88969"/>
<path d="M70.9843 285.713C70.9843 286.649 70.4169 287.409 69.7168 287.409C69.0167 287.409 68.4492 286.649 68.4492 285.713C68.4492 284.777 69.0167 284.017 69.7168 284.017C70.4169 284.017 70.9843 284.777 70.9843 285.713Z" fill="#43363E"/>
<path d="M71.8443 283.887C71.7642 284.188 71.5999 284.31 71.433 284.449C71.2627 284.575 71.08 284.665 70.8956 284.743C70.5259 284.889 70.1488 284.975 69.7733 285.04L69.7691 285.04C69.4879 285.089 69.22 284.899 69.1716 284.618C69.1232 284.337 69.3126 284.069 69.5938 284.021C69.6472 284.012 69.7015 284.012 69.7524 284.018C70.0795 284.063 70.4083 284.09 70.7237 284.068C70.8789 284.054 71.0324 284.031 71.1701 283.985C71.302 283.951 71.4413 283.846 71.4822 283.809L71.5773 283.724C71.6449 283.664 71.7475 283.669 71.8076 283.737C71.846 283.779 71.8577 283.836 71.8443 283.887Z" fill="#43363E"/>
<path d="M80.5214 285.713C80.5214 286.649 79.9539 287.409 79.2538 287.409C78.5537 287.409 77.9863 286.649 77.9863 285.713C77.9863 284.777 78.5537 284.017 79.2538 284.017C79.9539 284.017 80.5214 284.777 80.5214 285.713Z" fill="#43363E"/>
<path d="M81.3826 283.887C81.3025 284.188 81.1381 284.31 80.9712 284.449C80.801 284.575 80.6182 284.665 80.4346 284.743C80.065 284.889 79.6878 284.975 79.3123 285.04L79.3081 285.04C79.0269 285.089 78.7591 284.899 78.7107 284.618C78.6623 284.337 78.8517 284.069 79.1329 284.021C79.1863 284.012 79.2405 284.012 79.2914 284.018C79.6185 284.063 79.9473 284.09 80.2627 284.068C80.4179 284.054 80.5715 284.031 80.7092 283.985C80.8419 283.951 80.9804 283.846 81.0213 283.809L81.1164 283.724C81.1831 283.664 81.2866 283.669 81.3467 283.737C81.3842 283.779 81.3959 283.836 81.3826 283.887Z" fill="#43363E"/>
<path d="M71.6417 280.779C71.222 280.744 70.7029 280.71 70.2298 280.73C69.745 280.735 69.2619 280.781 68.7787 280.852C68.2947 280.922 67.8208 281.05 67.3485 281.201C66.8728 281.348 66.4197 281.561 65.9491 281.773L65.9283 281.782C65.7622 281.856 65.5678 281.783 65.4935 281.617C65.4343 281.484 65.4701 281.333 65.5711 281.239C65.9791 280.865 66.4281 280.517 66.9287 280.253C67.4169 279.962 67.9593 279.775 68.505 279.612C69.0532 279.447 69.6248 279.371 70.1973 279.352C70.7797 279.348 71.3238 279.379 71.9396 279.559C72.2717 279.656 72.4628 280.004 72.366 280.336C72.2809 280.627 72.0038 280.81 71.7126 280.786L71.6417 280.779Z" fill="#43363E"/>
<path d="M72.7591 279.682C72.8258 279.933 72.7374 280.21 72.5471 280.402C72.3585 280.594 72.1207 280.699 71.8929 280.769L71.8754 280.774C71.6985 280.828 71.5116 280.729 71.4582 280.552C71.4039 280.375 71.5032 280.188 71.6801 280.135C71.721 280.122 71.7627 280.118 71.8028 280.121C71.9772 280.135 72.1449 280.122 72.2818 280.063C72.3494 280.033 72.4111 279.991 72.4595 279.931C72.5079 279.874 72.5421 279.787 72.5538 279.717L72.5571 279.694C72.5663 279.637 72.6189 279.599 72.6756 279.608C72.7174 279.614 72.7491 279.644 72.7591 279.682Z" fill="#43363E"/>
<path d="M78.0073 280.779C78.427 280.744 78.946 280.71 79.42 280.73C79.9048 280.735 80.3879 280.781 80.8711 280.852C81.3551 280.922 81.829 281.05 82.3005 281.201C82.7761 281.348 83.2292 281.561 83.6999 281.773L83.7207 281.782C83.8868 281.856 84.0812 281.783 84.1555 281.617C84.2147 281.484 84.1788 281.333 84.0779 281.239C83.6698 280.865 83.2209 280.517 82.721 280.253C82.2329 279.962 81.6905 279.775 81.1439 279.612C80.5957 279.447 80.0241 279.371 79.4517 279.352C78.8692 279.348 78.3252 279.379 77.7094 279.559C77.3773 279.656 77.1862 280.004 77.283 280.336C77.3681 280.627 77.6451 280.81 77.9363 280.786L78.0073 280.779Z" fill="#43363E"/>
<path d="M76.8893 279.682C76.8225 279.933 76.911 280.21 77.1012 280.402C77.2898 280.594 77.5276 280.699 77.7554 280.769L77.773 280.774C77.9499 280.828 78.1368 280.729 78.1902 280.552C78.2444 280.375 78.1451 280.188 77.9682 280.135C77.9273 280.122 77.8856 280.118 77.8456 280.121C77.6712 280.135 77.5034 280.122 77.3666 280.063C77.299 280.033 77.2372 279.991 77.1897 279.931C77.1413 279.874 77.1071 279.787 77.0954 279.717L77.0921 279.694C77.0829 279.637 77.0303 279.599 76.9736 279.608C76.931 279.614 76.8993 279.644 76.8893 279.682Z" fill="#43363E"/>
<path d="M70.4746 291.038C71.1597 291.462 71.8798 291.787 72.605 292.046C73.3359 292.291 74.0886 292.442 74.8404 292.443C75.5898 292.456 76.3474 292.343 77.0651 292.072C77.7969 291.834 78.4753 291.441 79.1795 291.038C78.9075 291.33 78.6213 291.624 78.3084 291.888C77.9721 292.118 77.65 292.387 77.262 292.543C76.5252 292.935 75.6699 293.1 74.8313 293.096C73.1382 293.071 71.5243 292.263 70.4746 291.038Z" fill="#C88969"/>
<path d="M73.375 293.695C73.9983 293.802 74.509 293.849 75.0389 293.838C75.3017 293.831 75.5671 293.816 75.8416 293.783C76.117 293.752 76.4032 293.715 76.7261 293.695C76.525 293.939 76.2755 294.149 75.9835 294.274C75.6973 294.418 75.3735 294.473 75.0514 294.491C74.4114 294.495 73.7263 294.249 73.375 293.695Z" fill="#C88969"/>
<path d="M86.5863 287.367L88.4455 283.507C88.5657 283.402 88.7017 283.291 88.8619 283.195C89.4151 282.875 90.232 282.651 91.4578 282.706C91.6823 282.715 91.8826 282.771 92.0586 282.875C91.0999 278.736 90.2688 275.339 90.0176 274.328C89.9341 273.054 89.6963 271.861 89.2541 270.809C86.1533 263.397 75.3689 265.401 75.3689 265.401C64.7723 263.574 58.3971 268.231 57.4141 274.533C57.4108 274.546 57.4091 274.554 57.4058 274.566C57.3975 274.591 57.3974 274.607 57.3974 274.615C56.4195 278.581 50.9956 300.991 51.6364 303.355C52.1087 305.126 59.4802 306.752 64.1832 307.609C64.2875 307.56 64.3918 307.513 64.4961 307.473C65.6101 306.968 66.5154 306.616 67.0203 306.431L67.0286 306.423C67.1004 306.391 67.1646 306.367 67.2205 306.351C67.2764 306.335 67.3324 306.311 67.3649 306.295C67.4208 306.271 67.4534 306.264 67.4534 306.264L67.4934 306.304V300.896C66.3719 300.07 65.2104 298.925 64.1206 297.354C63.0708 295.848 62.3015 293.821 61.7491 291.57C61.709 291.426 61.6773 291.281 61.6448 291.129C56.5889 294.927 54.2574 282.861 57.8072 282.709C58.0316 282.701 58.2394 282.701 58.4397 282.709C58.6324 282.715 58.8127 282.729 58.9821 282.75C58.9979 282.752 59.0113 282.755 59.0271 282.757C59.1715 282.776 59.3067 282.8 59.4343 282.828C59.5103 282.845 59.5779 282.867 59.648 282.887C59.7155 282.906 59.7856 282.923 59.8482 282.945C59.8949 282.959 59.9333 282.979 59.9759 282.995C60.0618 283.029 60.1486 283.063 60.2254 283.101L60.2262 283.102C60.2279 283.103 60.2287 283.104 60.2304 283.105C61.1157 284.97 62.8831 288.505 62.8831 288.505L63.5507 284.699C72.3641 283.097 76.7708 275.352 76.7708 275.352C80.2429 282.229 86.185 282.429 86.185 282.429L86.5863 287.367Z" fill="#43363E"/>
<path d="M93.0454 287.217C92.5322 290.302 90.4577 293.434 87.4529 290.99C87.4212 291.159 87.3803 291.326 87.3403 291.495C86.7879 293.77 86.0101 295.821 84.9529 297.352C84.7927 297.576 84.6408 297.792 84.4806 298.001C84.3204 298.21 84.1602 298.41 83.9916 298.602C83.8314 298.786 83.6787 298.971 83.5193 299.138C83.511 299.154 83.4951 299.17 83.4793 299.178C83.3591 299.314 83.2306 299.443 83.1105 299.563C82.6056 300.076 82.0933 300.508 81.5801 300.885V306.486L81.6844 306.365C81.6844 306.365 83.647 306.517 85.658 307.159C90.1365 306.238 95.4486 304.852 95.8491 303.361C96.2104 302.031 94.6558 294.372 93.0454 287.217Z" fill="#43363E"/>
<g opacity="0.5">
<path d="M89.8701 273.064C84.5422 273.989 79.0474 272.352 73.8813 271.103C70.2039 270.213 66.4639 269.357 62.6656 269.279C61.6025 269.257 60.6228 269.249 59.7934 269.365C58.5225 270.844 57.7148 272.61 57.4144 274.533C57.4111 274.546 57.4094 274.554 57.406 274.566C57.3977 274.591 57.3977 274.607 57.3977 274.615C57.2141 275.359 56.8745 276.752 56.4473 278.539C60.2131 278.186 63.9272 278.064 67.7198 278.619C69.5289 278.884 71.3121 279.318 73.0903 279.768C75.536 277.5 76.771 275.349 76.771 275.349C78.4967 278.767 80.8323 280.534 82.7456 281.449C83.4991 281.453 84.2585 281.415 85.0237 281.32C85.8214 281.22 88.7286 280.548 91.3037 279.657C90.6854 277.047 90.1989 275.06 90.017 274.328C89.9895 273.895 89.9361 273.476 89.8701 273.064Z" fill="#43363E"/>
</g>
<path d="M131.354 313.324L60.7961 306.798L81.7153 265.9L131.354 313.324Z" fill="url(#paint4_linear_171_1261)"/>
</g>
<defs>
<filter id="filter0_d_171_1261" x="68.6851" y="23.6851" width="251.259" height="377.259" filterUnits="userSpaceOnUse" color-interpolation-filters="sRGB">
<feFlood flood-opacity="0" result="BackgroundImageFix"/>
<feColorMatrix in="SourceAlpha" type="matrix" values="0 0 0 0 0 0 0 0 0 0 0 0 0 0 0 0 0 0 127 0" result="hardAlpha"/>
<feMorphology radius="2.15743" operator="dilate" in="SourceAlpha" result="effect1_dropShadow_171_1261"/>
<feOffset dx="4.31487" dy="4.31487"/>
<feGaussianBlur stdDeviation="3.23615"/>
<feComposite in2="hardAlpha" operator="out"/>
<feColorMatrix type="matrix" values="0 0 0 0 0 0 0 0 0 0.52549 0 0 0 0 0.827451 0 0 0 0.06 0"/>
<feBlend mode="normal" in2="BackgroundImageFix" result="effect1_dropShadow_171_1261"/>
<feBlend mode="normal" in="SourceGraphic" in2="effect1_dropShadow_171_1261" result="shape"/>
</filter>
<filter id="filter1_d_171_1261" x="262.685" y="207.685" width="133.259" height="216.259" filterUnits="userSpaceOnUse" color-interpolation-filters="sRGB">
<feFlood flood-opacity="0" result="BackgroundImageFix"/>
<feColorMatrix in="SourceAlpha" type="matrix" values="0 0 0 0 0 0 0 0 0 0 0 0 0 0 0 0 0 0 127 0" result="hardAlpha"/>
<feMorphology radius="2.15743" operator="dilate" in="SourceAlpha" result="effect1_dropShadow_171_1261"/>
<feOffset dx="4.31487" dy="4.31487"/>
<feGaussianBlur stdDeviation="3.23615"/>
<feComposite in2="hardAlpha" operator="out"/>
<feColorMatrix type="matrix" values="0 0 0 0 0 0 0 0 0 0.52549 0 0 0 0 0.827451 0 0 0 0.06 0"/>
<feBlend mode="normal" in2="BackgroundImageFix" result="effect1_dropShadow_171_1261"/>
<feBlend mode="normal" in="SourceGraphic" in2="effect1_dropShadow_171_1261" result="shape"/>
</filter>
<linearGradient id="paint0_linear_171_1261" x1="101.86" y1="28" x2="374.981" y2="133.672" gradientUnits="userSpaceOnUse">
<stop stop-color="#A6C2FB"/>
<stop offset="0.646788" stop-color="#D2EFFF"/>
</linearGradient>
<linearGradient id="paint1_linear_171_1261" x1="307" y1="28" x2="4.51742" y2="109.485" gradientUnits="userSpaceOnUse">
<stop stop-color="#1531A9"/>
<stop offset="0.15" stop-color="#0086D3"/>
<stop offset="1" stop-color="#1531A9"/>
</linearGradient>
<linearGradient id="paint2_linear_171_1261" x1="281.307" y1="212" x2="420.241" y2="260.207" gradientUnits="userSpaceOnUse">
<stop stop-color="#A6C2FB"/>
<stop offset="0.646788" stop-color="#D2EFFF"/>
</linearGradient>
<linearGradient id="paint3_linear_171_1261" x1="383" y1="212" x2="231.039" y2="248.712" gradientUnits="userSpaceOnUse">
<stop stop-color="#1531A9"/>
<stop offset="0.15" stop-color="#0086D3"/>
<stop offset="1" stop-color="#1531A9"/>
</linearGradient>
<linearGradient id="paint4_linear_171_1261" x1="75.2435" y1="288.209" x2="130.23" y2="317.664" gradientUnits="userSpaceOnUse">
<stop stop-color="white" stop-opacity="0"/>
<stop offset="1" stop-color="#88A6E2"/>
</linearGradient>
<clipPath id="clip0_171_1261">
<rect width="410" height="482" fill="white"/>
</clipPath>
<clipPath id="clip1_171_1261">
<rect width="142" height="166" fill="white" transform="translate(118 150.526)"/>
</clipPath>
<clipPath id="clip2_171_1261">
<rect width="74" height="70" fill="white" transform="translate(288 295)"/>
</clipPath>
</defs>
</svg>
